# Blender v2.92.0 OBJ File: ''
# www.blender.org
mtllib Pawn.mtl
o Chess_Pawn
v -0.000000 -0.000000 -1.408680
v 0.996087 0.000000 -0.996087
v 1.408680 0.000000 0.000001
v 0.996087 0.000000 0.996088
v -0.000000 0.000000 1.408681
v -0.996088 0.000000 0.996088
v -1.408680 0.000000 -0.000001
v -0.996086 0.000000 -0.996088
v 0.000000 0.483861 -1.259045
v 0.890280 0.483861 -0.890279
v 1.259046 0.483861 0.000000
v 0.890280 0.483861 0.890281
v -0.000000 0.483861 1.259047
v -0.890280 0.483861 0.890280
v -1.259046 0.483861 -0.000001
v -0.890279 0.483861 -0.890281
v -0.000000 0.765228 -1.348191
v 0.953316 0.765228 -0.953315
v 1.348192 0.765229 0.000000
v 0.953316 0.765229 0.953316
v -0.000000 0.765229 1.348192
v -0.953316 0.765229 0.953316
v -1.348192 0.765229 -0.000001
v -0.953315 0.765228 -0.953316
v -0.000000 0.253856 -1.472059
v 1.040904 0.253856 -1.040903
v 1.472060 0.253856 0.000001
v 1.040904 0.253856 1.040904
v -0.000000 0.253856 1.472061
v -1.040904 0.253856 1.040904
v -1.472060 0.253856 -0.000001
v -1.040902 0.253856 -1.040904
v 0.000000 1.102465 -0.928053
v 0.656233 1.102465 -0.656232
v 0.928053 1.102465 0.000000
v 0.656233 1.102465 0.656233
v -0.000000 1.102465 0.928054
v -0.656233 1.102465 0.656233
v -0.928053 1.102465 -0.000001
v -0.656232 1.102465 -0.656233
v -0.000000 1.956171 0.486353
v -0.343904 1.956171 0.343903
v 0.486353 1.956171 0.000000
v 0.343903 1.956171 0.343903
v -0.343903 1.956171 -0.343904
v 0.000000 1.956171 -0.486353
v 0.343903 1.956171 -0.343903
v -0.486353 1.956171 -0.000000
v -0.000000 2.618792 0.559550
v 0.559550 2.618792 -0.000000
v -0.395661 2.618792 -0.395662
v -0.395662 2.618792 0.395661
v 0.395661 2.618792 0.395661
v 0.000000 2.618792 -0.559550
v 0.395661 2.618792 -0.395661
v -0.559550 2.618792 -0.000001
v 0.259018 3.100839 0.259018
v -0.000000 3.100839 0.366307
v 0.366307 3.100839 -0.000000
v 0.259018 3.100839 -0.259018
v 0.000000 3.100839 -0.366307
v -0.259018 3.100839 -0.259019
v -0.366307 3.100839 -0.000000
v -0.259018 3.100839 0.259018
v 0.375137 4.429845 -0.375137
v 0.530524 3.899321 -0.530523
v 0.375137 3.368798 -0.375136
v 0.530524 4.429845 0.000000
v 0.750274 3.899321 0.000000
v 0.530524 3.368798 0.000000
v 0.375137 4.429845 0.375137
v 0.530524 3.899321 0.530524
v 0.375137 3.368798 0.375137
v 0.000000 4.429845 0.530524
v -0.000000 3.899321 0.750274
v 0.000000 3.368798 0.530524
v -0.000000 4.649595 0.000000
v -0.375137 4.429845 0.375137
v -0.530523 3.899321 0.530524
v -0.375137 3.368798 0.375137
v -0.530523 4.429845 0.000000
v -0.750273 3.899321 0.000000
v -0.530523 3.368798 0.000000
v -0.375137 4.429845 -0.375137
v -0.530523 3.899321 -0.530523
v -0.375137 3.368798 -0.375136
v -0.000000 4.429845 -0.530523
v -0.000000 3.899321 -0.750273
v -0.000000 3.368798 -0.530523
v 0.248938 3.199179 -0.248938
v 0.352052 3.199179 0.000000
v 0.248938 3.199179 0.248938
v 0.000000 3.199179 0.352052
v -0.248938 3.199179 0.248938
v -0.352052 3.199179 0.000000
v -0.248938 3.199179 -0.248938
v 0.000000 3.199179 -0.352051
v 0.611565 2.789893 0.611566
v 0.611391 2.940547 0.611391
v -0.000000 2.789893 0.864884
v -0.000000 2.940547 0.864637
v 0.864885 2.789893 0.000000
v 0.864637 2.940547 0.000000
v 0.611565 2.789893 -0.611565
v 0.611391 2.940547 -0.611391
v -0.000000 2.789893 -0.864884
v -0.000000 2.940547 -0.864637
v -0.611565 2.789893 -0.611566
v -0.611390 2.940547 -0.611392
v -0.864884 2.789893 -0.000001
v -0.864637 2.940547 -0.000001
v -0.611566 2.789893 0.611565
v -0.611391 2.940547 0.611391
vt 0.772579 0.359929
vt 0.806927 0.352010
vt 0.807511 0.459750
vt 0.773138 0.463030
vt 0.650108 0.459750
vt 0.685284 0.470774
vt 0.685284 0.601093
vt 0.650108 0.612118
vt 0.772579 0.693243
vt 0.752172 0.719858
vt 0.281516 0.406948
vt 0.319592 0.395810
vt 0.320127 0.494484
vt 0.282016 0.499097
vt 0.876583 0.356624
vt 0.914694 0.352010
vt 0.914694 0.491556
vt 0.876583 0.486943
vt 0.330962 0.450684
vt 0.395298 0.472428
vt 0.395298 0.568487
vt 0.330962 0.590230
vt 0.459644 0.636411
vt 0.424438 0.688905
vt 0.926111 0.924626
vt 0.902993 0.809525
vt 0.938590 0.809638
vt 0.994036 0.924842
vt 0.807511 0.612117
vt 0.773138 0.608837
vt 0.806927 0.719857
vt 0.772579 0.711939
vt 0.876583 0.494836
vt 0.910956 0.491556
vt 0.910956 0.643924
vt 0.876583 0.640644
vt 0.216123 0.388252
vt 0.250471 0.380333
vt 0.251055 0.488073
vt 0.216682 0.491353
vt 0.251055 0.640441
vt 0.216682 0.637161
vt 0.282016 0.629417
vt 0.000000 0.219785
vt 0.037832 0.202774
vt 0.117853 0.248948
vt 0.093560 0.273770
vt 0.838471 0.601093
vt 0.876583 0.605707
vt 0.876048 0.704381
vt 0.837972 0.693243
vt 0.837972 0.378625
vt 0.876048 0.367486
vt 0.876583 0.466161
vt 0.838471 0.470774
vt 0.320127 0.634030
vt 0.319592 0.732704
vt 0.281516 0.721566
vt 0.129918 0.213506
vt 0.170981 0.178677
vt 0.257408 0.220602
vt 0.255472 0.274412
vt 0.556633 0.352010
vt 0.550642 0.404503
vt 0.459644 0.404503
vt 0.424438 0.352010
vt 0.556633 0.688905
vt 0.550642 0.636411
vt 0.614988 0.568487
vt 0.650108 0.590230
vt 0.111997 0.144642
vt 0.212627 0.063644
vt 0.243538 0.081480
vt 0.288830 0.103451
vt 0.321973 0.116687
vt 0.320650 0.245859
vt 0.250471 0.748181
vt 0.216123 0.740262
vt 0.235105 0.305826
vt 0.230649 0.340271
vt 0.320903 0.340091
vt 0.330962 0.380333
vt 0.650108 0.450684
vt 0.614988 0.472428
vt 0.750443 0.007846
vt 0.760483 0.124815
vt 0.725124 0.120703
vt 0.682972 0.000000
vt 0.752172 0.352010
vt 0.772579 0.378625
vt 0.081814 0.305499
vt 0.213001 0.369137
vt 0.330962 0.103101
vt 0.434064 0.000000
vt 0.579871 0.000000
vt 0.682972 0.103101
vt 0.682972 0.248908
vt 0.579871 0.352010
vt 0.434064 0.352010
vt 0.330962 0.248909
vt 0.137020 0.558306
vt 0.177973 0.517353
vt 0.216123 0.533155
vt 0.152822 0.596456
vt 0.091324 0.658719
vt 0.059949 0.596456
vt 0.144729 0.596456
vt 0.127241 0.658719
vt 0.152639 0.685529
vt 0.204678 0.659739
vt 0.204678 0.749234
vt 0.152639 0.723444
vt 0.065926 0.723444
vt 0.000000 0.749234
vt 0.000000 0.659739
vt 0.065926 0.685529
vt 0.127241 0.750254
vt 0.144729 0.812517
vt 0.059949 0.812517
vt 0.091324 0.750254
vt 0.963860 0.000000
vt 0.941000 0.115152
vt 0.890660 0.115152
vt 0.867800 0.000000
vt 0.830052 0.924842
vt 0.852653 0.809638
vt 0.845918 0.018424
vt 0.810517 0.130358
vt 0.746844 0.213512
vt 0.706164 0.208781
vt 0.278853 0.000000
vt 0.330962 0.025278
vt 0.855063 0.114959
vt 0.886871 0.204812
vt 0.845918 0.204589
vt 0.804409 0.219890
vt 0.976596 0.114959
vt 0.985742 0.204589
vt 0.944788 0.204812
vt 0.845918 0.134086
vt 0.845138 0.224179
vt 0.848663 0.719988
vt 0.906580 0.719858
vt 0.038149 0.517353
vt 0.079103 0.558306
vt 0.063301 0.596456
vt 0.000000 0.533155
vt 0.079103 0.418483
vt 0.038149 0.459436
vt 0.000000 0.443634
vt 0.063301 0.380333
vt 0.177973 0.459436
vt 0.216123 0.443634
vt 0.137020 0.418483
vt 0.152822 0.380333
vt 0.599709 0.688905
vt 0.583218 0.755190
vt 0.547689 0.688905
vt 0.402708 0.821476
vt 0.331085 0.810264
vt 0.330962 0.755351
vt 0.402533 0.743818
vt 0.474576 0.809941
vt 0.474453 0.755029
vt 0.331085 0.716522
vt 0.402708 0.688905
vt 0.794020 0.879723
vt 0.722275 0.907340
vt 0.721854 0.852428
vt 0.793722 0.840894
vt 0.510906 0.727734
vt 0.650232 0.841217
vt 0.650108 0.786304
vt 0.721679 0.774771
vt 0.793599 0.785982
vt 0.510906 0.782646
vt 0.547689 0.821475
vt 0.650232 0.747475
vt 0.721854 0.719858
vt 0.097467 0.812517
vt 0.166327 0.846699
vt 0.126157 0.884140
vt 0.069062 0.838992
vt 0.069062 0.936780
vt 0.028690 0.876214
vt 0.599709 0.821475
vt 0.166327 0.944487
vt 0.125955 0.981709
vt 0.028488 0.973783
vt 0.000000 0.902379
vt 0.636492 0.782646
vt 0.239860 0.812517
vt 0.312238 0.839973
vt 0.309449 0.878802
vt 0.235916 0.867429
vt 0.166327 0.878802
vt 0.235916 0.945087
vt 0.166327 0.933715
vt 0.636492 0.727734
vt 0.309449 0.933715
vt 0.474874 0.848770
vt 0.403129 0.876387
vt 0.312238 0.972544
vt 0.239860 1.000000
vt 0.816679 0.795167
vt 0.816761 0.831606
vt 0.019850 0.853000
vt 0.046641 0.828299
vt 0.884747 0.337382
vt 0.845918 0.298553
vt 0.868217 0.289317
vt 0.893983 0.315083
vt 0.497533 0.764214
vt 0.497615 0.800653
vt 0.845918 0.243641
vt 0.868217 0.252877
vt 0.761211 0.279091
vt 0.761211 0.334004
vt 0.738913 0.324767
vt 0.738913 0.288328
vt 0.761211 0.224179
vt 0.761212 0.279091
vt 0.738913 0.269855
vt 0.738913 0.233415
vt 0.884747 0.204812
vt 0.893983 0.227110
vt 0.038175 0.818029
vt 0.010300 0.843729
vt 0.725595 0.224179
vt 0.738913 0.225960
vt 0.737062 0.251726
vt 0.723669 0.250989
vt 0.737062 0.288166
vt 0.723669 0.288904
vt 0.738913 0.313933
vt 0.725595 0.315714
vt 0.510906 0.801361
vt 0.510821 0.763446
vt 0.497615 0.738447
vt 0.510906 0.736636
vt 0.830052 0.832314
vt 0.829967 0.794399
vt 0.816761 0.769400
vt 0.830052 0.767589
vt 0.931330 0.491587
vt 0.931673 0.554870
vt 0.911299 0.554857
vt 0.910956 0.491556
vt 0.703346 0.224192
vt 0.703346 0.313687
vt 0.682972 0.313700
vt 0.682972 0.224179
vt 0.935411 0.428243
vt 0.935068 0.491525
vt 0.914694 0.491556
vt 0.915037 0.428255
vt 0.935411 0.338747
vt 0.915037 0.338734
vt 0.935068 0.275464
vt 0.914694 0.275434
vt 0.723669 0.224192
vt 0.723669 0.313687
vt 0.703346 0.313700
vt 0.703346 0.224179
vt 0.931673 0.644365
vt 0.931330 0.707648
vt 0.910956 0.707679
vt 0.911299 0.644378
vn -0.3729 -0.2248 -0.9002
vn 0.7020 0.6501 0.2908
vn 0.2908 0.6501 0.7020
vn 0.3673 -0.2809 0.8867
vn 0.8867 -0.2809 0.3673
vn 0.6059 0.7549 0.2510
vn 0.2510 0.7549 0.6059
vn 0.3453 0.4313 0.8335
vn 0.3729 -0.2248 -0.9002
vn 0.9002 -0.2248 -0.3729
vn 0.9002 -0.2248 0.3729
vn 0.3729 -0.2248 0.9002
vn -0.3729 -0.2248 0.9002
vn -0.2908 0.6501 0.7020
vn -0.7020 0.6501 0.2908
vn 0.8867 -0.2809 -0.3673
vn -0.3673 -0.2809 -0.8867
vn -0.8867 -0.2809 0.3673
vn -0.6059 0.7549 -0.2510
vn 0.2510 0.7549 -0.6059
vn -0.6059 0.7549 0.2510
vn -0.8335 0.4313 0.3453
vn -0.3453 0.4313 -0.8335
vn -0.9002 -0.2248 0.3729
vn -0.7020 0.6501 -0.2908
vn -0.2908 0.6501 -0.7020
vn -0.3673 -0.2809 0.8867
vn -0.8867 -0.2809 -0.3673
vn -0.2510 0.7549 0.6059
vn -0.2510 0.7549 -0.6059
vn 0.8335 0.4313 -0.3453
vn 0.6059 0.7549 -0.2510
vn 0.3673 -0.2809 -0.8867
vn 0.7020 0.6501 -0.2908
vn 0.2908 0.6501 -0.7020
vn -0.9002 -0.2248 -0.3729
vn -0.0000 -1.0000 0.0000
vn -0.4791 -0.8550 0.1985
vn 0.1258 0.9444 -0.3038
vn -0.3038 0.9444 -0.1258
vn 0.3038 0.9444 0.1258
vn -0.1258 0.9444 0.3038
vn -0.3453 0.4313 0.8335
vn -0.8335 0.4313 -0.3453
vn 0.8335 0.4313 0.3453
vn 0.3453 0.4313 -0.8335
vn 0.9191 -0.1015 -0.3807
vn -0.9191 -0.1015 -0.3807
vn -0.9191 -0.1015 0.3807
vn 0.3807 -0.1015 -0.9191
vn 0.3807 -0.1015 0.9191
vn -0.3807 -0.1015 -0.9191
vn 0.9191 -0.1015 0.3807
vn -0.3807 -0.1015 0.9191
vn -0.1985 -0.8550 -0.4791
vn 0.4791 -0.8550 -0.1985
vn -0.1985 -0.8550 0.4791
vn -0.4791 -0.8550 -0.1985
vn 0.1985 -0.8550 -0.4791
vn 0.4791 -0.8550 0.1985
vn 0.1566 0.9125 -0.3780
vn 0.3574 0.3574 -0.8629
vn 0.3574 -0.3574 -0.8629
vn 0.8629 0.3574 -0.3574
vn 0.8629 -0.3574 -0.3574
vn 0.3780 0.9125 -0.1566
vn 0.8629 0.3574 0.3574
vn 0.8629 -0.3574 0.3574
vn 0.3780 0.9125 0.1566
vn 0.1566 0.9125 0.3780
vn 0.3574 0.3574 0.8629
vn 0.3574 -0.3574 0.8629
vn -0.3574 -0.3574 0.8629
vn -0.1566 0.9125 0.3780
vn -0.3574 0.3574 0.8629
vn -0.8629 -0.3574 0.3574
vn -0.3780 0.9125 0.1566
vn -0.8629 0.3574 0.3574
vn -0.8629 -0.3574 -0.3574
vn -0.3780 0.9125 -0.1566
vn -0.8629 0.3574 -0.3574
vn -0.3574 -0.3574 -0.8629
vn -0.1566 0.9125 -0.3780
vn -0.3574 0.3574 -0.8629
vn 0.6625 -0.6970 0.2744
vn -0.2744 -0.6970 0.6625
vn -0.6625 -0.6970 0.2744
vn 0.2744 -0.6970 -0.6625
vn -0.6625 -0.6970 -0.2744
vn 0.6625 -0.6970 -0.2744
vn 0.2744 -0.6970 0.6625
vn -0.2744 -0.6970 -0.6625
vn -0.3793 0.1327 0.9157
vn -0.9157 0.1327 0.3793
vn -0.9157 0.1327 -0.3793
vn -0.3793 0.1327 -0.9157
vn 0.3793 0.1327 -0.9157
vn 0.9157 0.1327 -0.3793
vn 0.9157 0.1327 0.3793
vn 0.3793 0.1327 0.9157
vn 0.3827 0.0015 0.9239
vn 0.9239 0.0015 0.3827
vn 0.9239 0.0015 -0.3827
vn 0.1258 0.9444 0.3038
vn 0.3827 0.0015 -0.9239
vn -0.3038 0.9444 0.1258
vn -0.3827 0.0015 -0.9239
vn -0.1258 0.9444 -0.3038
vn -0.9239 0.0015 -0.3827
vn 0.3038 0.9444 -0.1258
vn -0.9239 0.0015 0.3827
vn -0.3827 0.0015 0.9239
vn 0.1985 -0.8550 0.4791
usemtl None
s 1
f 8/1/1 32/2/1 25/3/1 1/4/1
f 27/5/2 11/6/2 12/7/2 28/8/2
f 28/8/3 12/7/3 13/9/3 29/10/3
f 12/11/4 20/12/4 21/13/4 13/14/4
f 11/15/5 19/16/5 20/17/5 12/18/5
f 19/19/6 35/20/6 36/21/6 20/22/6
f 20/22/7 36/21/7 37/23/7 21/24/7
f 36/25/8 44/26/8 41/27/8 37/28/8
f 1/4/9 25/3/9 26/29/9 2/30/9
f 2/30/10 26/29/10 27/31/10 3/32/10
f 3/33/11 27/34/11 28/35/11 4/36/11
f 4/37/12 28/38/12 29/39/12 5/40/12
f 5/40/13 29/39/13 30/41/13 6/42/13
f 29/39/14 13/14/14 14/43/14 30/41/14
f 30/44/15 14/45/15 15/46/15 31/47/15
f 10/48/16 18/49/16 19/50/16 11/51/16
f 16/52/17 24/53/17 17/54/17 9/55/17
f 14/43/18 22/56/18 23/57/18 15/58/18
f 23/59/19 39/60/19 40/61/19 24/62/19
f 17/63/20 33/64/20 34/65/20 18/66/20
f 22/67/21 38/68/21 39/69/21 23/70/21
f 38/71/22 42/72/22 48/73/22 39/60/22
f 40/61/23 45/74/23 46/75/23 33/76/23
f 6/42/24 30/41/24 31/77/24 7/78/24
f 31/47/25 15/46/25 16/79/25 32/80/25
f 32/80/26 16/79/26 9/81/26 25/82/26
f 13/14/27 21/13/27 22/56/27 14/43/27
f 15/46/28 23/59/28 24/62/28 16/79/28
f 21/24/29 37/23/29 38/68/29 22/67/29
f 24/83/30 40/84/30 33/64/30 17/63/30
f 34/85/31 47/86/31 43/87/31 35/88/31
f 18/66/32 34/65/32 35/20/32 19/19/32
f 9/55/33 17/54/33 18/49/33 10/48/33
f 26/89/34 10/90/34 11/6/34 27/5/34
f 25/3/35 9/55/35 10/48/35 26/29/35
f 7/91/36 31/47/36 32/80/36 8/92/36
f 5/93/37 6/94/37 7/95/37 8/96/37 1/97/37 2/98/37 3/99/37 4/100/37
f 56/101/38 52/102/38 112/103/38 110/104/38
f 60/105/39 105/106/39 107/107/39 61/108/39
f 62/109/40 109/110/40 111/111/40 63/112/40
f 57/113/41 99/114/41 103/115/41 59/116/41
f 64/117/42 113/118/42 101/119/42 58/120/42
f 37/121/43 41/122/43 42/123/43 38/124/43
f 39/60/44 48/73/44 45/74/44 40/61/44
f 35/125/45 43/126/45 44/26/45 36/25/45
f 33/127/46 46/128/46 47/86/46 34/85/46
f 43/87/47 47/86/47 55/129/47 50/130/47
f 45/74/48 48/73/48 56/131/48 51/132/48
f 48/133/49 42/123/49 52/134/49 56/135/49
f 47/86/50 46/128/50 54/136/50 55/129/50
f 41/122/51 44/137/51 53/138/51 49/139/51
f 46/128/52 45/140/52 51/141/52 54/136/52
f 44/26/53 43/126/53 50/142/53 53/143/53
f 42/123/54 41/122/54 49/139/54 52/134/54
f 54/144/55 51/145/55 108/146/55 106/147/55
f 50/148/56 55/149/56 104/150/56 102/151/56
f 52/102/57 49/152/57 100/153/57 112/103/57
f 51/145/58 56/101/58 110/104/58 108/146/58
f 55/149/59 54/144/59 106/147/59 104/150/59
f 53/154/60 50/148/60 102/151/60 98/155/60
f 87/156/61 77/157/61 65/158/61
f 88/159/62 87/160/62 65/161/62 66/162/62
f 89/163/63 88/159/63 66/162/63 67/164/63
f 66/162/64 65/161/64 68/165/64 69/166/64
f 67/167/65 66/168/65 69/169/65 70/170/65
f 65/158/66 77/157/66 68/171/66
f 69/169/67 68/172/67 71/173/67 72/174/67
f 70/170/68 69/169/68 72/174/68 73/175/68
f 68/171/69 77/157/69 71/176/69
f 71/176/70 77/157/70 74/177/70
f 72/174/71 71/173/71 74/178/71 75/179/71
f 73/180/72 72/181/72 75/182/72 76/183/72
f 76/183/73 75/182/73 79/184/73 80/185/73
f 74/177/74 77/157/74 78/186/74
f 75/182/75 74/187/75 78/188/75 79/184/75
f 80/185/76 79/184/76 82/189/76 83/190/76
f 78/186/77 77/157/77 81/191/77
f 79/192/78 78/193/78 81/194/78 82/195/78
f 83/196/79 82/195/79 85/197/79 86/198/79
f 81/191/80 77/157/80 84/199/80
f 82/195/81 81/194/81 84/200/81 85/197/81
f 86/201/82 85/202/82 88/159/82 89/163/82
f 84/199/83 77/157/83 87/156/83
f 85/197/84 84/200/84 87/203/84 88/204/84
f 70/170/85 73/175/85 92/205/85 91/206/85
f 76/183/86 80/185/86 94/207/86 93/208/86
f 80/209/87 83/210/87 95/211/87 94/212/87
f 89/163/88 67/164/88 90/213/88 97/214/88
f 83/210/89 86/215/89 96/216/89 95/211/89
f 67/217/90 70/218/90 91/219/90 90/220/90
f 73/221/91 76/222/91 93/223/91 92/224/91
f 86/215/92 89/225/92 97/226/92 96/216/92
f 58/227/93 93/208/93 94/207/93 64/228/93
f 64/229/94 94/230/94 95/231/94 63/232/94
f 63/232/95 95/231/95 96/233/95 62/234/95
f 62/234/96 96/233/96 97/235/96 61/236/96
f 61/237/97 97/214/97 90/213/97 60/238/97
f 60/238/98 90/213/98 91/239/98 59/240/98
f 59/241/99 91/206/99 92/205/99 57/242/99
f 57/242/100 92/205/100 93/243/100 58/244/100
f 99/245/101 101/246/101 100/247/101 98/248/101
f 103/249/102 99/250/102 98/251/102 102/252/102
f 105/253/103 103/254/103 102/255/103 104/256/103
f 58/120/104 101/119/104 99/114/104 57/113/104
f 107/257/105 105/253/105 104/256/105 106/258/105
f 63/112/106 111/111/106 113/118/106 64/117/106
f 109/259/107 107/257/107 106/258/107 108/260/107
f 61/108/108 107/107/108 109/110/108 62/109/108
f 111/261/109 109/262/109 108/263/109 110/264/109
f 59/116/110 103/115/110 105/106/110 60/105/110
f 113/265/111 111/266/111 110/267/111 112/268/111
f 101/246/112 113/265/112 112/268/112 100/247/112
f 49/152/113 53/154/113 98/155/113 100/153/113
