# Blender v2.92.0 OBJ File: ''
# www.blender.org
mtllib board.mtl
o Chess_Board_Cube.017
v -0.237500 -0.000000 -0.237500
v 0.237500 -0.000000 -0.237500
v -0.237500 0.000000 0.237500
v 0.236205 0.000000 0.236204
v -0.178125 -0.000000 -0.237500
v -0.118750 -0.000000 -0.237500
v -0.059375 -0.000000 -0.237500
v -0.000000 -0.000000 -0.237500
v 0.059375 -0.000000 -0.237500
v 0.118750 -0.000000 -0.237500
v 0.178125 -0.000000 -0.237500
v 0.237500 -0.000000 -0.178125
v 0.237500 -0.000000 -0.118750
v 0.237500 -0.000000 -0.059375
v 0.237500 -0.000000 -0.000000
v 0.237500 0.000000 0.059375
v 0.237500 0.000000 0.118750
v 0.237500 0.000000 0.178125
v 0.178125 0.000000 0.237500
v 0.118750 0.000000 0.237500
v 0.059375 0.000000 0.237500
v 0.000000 0.000000 0.237500
v -0.059375 0.000000 0.237500
v -0.118750 0.000000 0.237500
v -0.178125 0.000000 0.237500
v -0.237500 0.000000 0.178125
v -0.237500 0.000000 0.118750
v -0.237500 0.000000 0.059375
v -0.237500 0.000000 0.000000
v -0.237500 -0.000000 -0.059375
v -0.237500 -0.000000 -0.118750
v -0.237500 -0.000000 -0.178125
v 0.178125 0.000000 0.178125
v 0.118750 0.000000 0.178125
v 0.059375 0.000000 0.178125
v 0.000000 0.000000 0.178125
v -0.059375 0.000000 0.178125
v -0.118750 0.000000 0.178125
v -0.178125 0.000000 0.178125
v 0.178125 0.000000 0.118750
v 0.118750 0.000000 0.118750
v 0.059375 0.000000 0.118750
v 0.000000 0.000000 0.118750
v -0.059375 0.000000 0.118750
v -0.118750 0.000000 0.118750
v -0.178125 0.000000 0.118750
v 0.178125 0.000000 0.059375
v 0.118750 0.000000 0.059375
v 0.059375 0.000000 0.059375
v 0.000000 0.000000 0.059375
v -0.059375 0.000000 0.059375
v -0.118750 0.000000 0.059375
v -0.178125 0.000000 0.059375
v 0.178125 -0.000000 -0.000000
v 0.118750 -0.000000 -0.000000
v 0.059375 -0.000000 -0.000000
v -0.000000 0.000000 0.000000
v -0.059375 0.000000 0.000000
v -0.118750 0.000000 0.000000
v -0.178125 0.000000 0.000000
v 0.178125 -0.000000 -0.059375
v 0.118750 -0.000000 -0.059375
v 0.059375 -0.000000 -0.059375
v -0.000000 -0.000000 -0.059375
v -0.059375 -0.000000 -0.059375
v -0.118750 -0.000000 -0.059375
v -0.178125 -0.000000 -0.059375
v 0.178125 -0.000000 -0.118750
v 0.118750 -0.000000 -0.118750
v 0.059375 -0.000000 -0.118750
v -0.000000 -0.000000 -0.118750
v -0.059375 -0.000000 -0.118750
v -0.118750 -0.000000 -0.118750
v -0.178125 -0.000000 -0.118750
v 0.178125 -0.000000 -0.178125
v 0.118750 -0.000000 -0.178125
v 0.059375 -0.000000 -0.178125
v -0.000000 -0.000000 -0.178125
v -0.059375 -0.000000 -0.178125
v -0.118750 -0.000000 -0.178125
v -0.178125 -0.000000 -0.178125
v -0.282897 -0.050000 -0.280600
v -0.280601 -0.050000 -0.282897
v -0.282225 -0.050000 -0.282224
v -0.282897 -0.004797 -0.280600
v -0.280604 -0.002374 -0.280604
v -0.280601 -0.004797 -0.282897
v -0.282226 -0.003110 -0.280602
v -0.281927 -0.003444 -0.281927
v -0.280602 -0.003110 -0.282226
v -0.282224 -0.004823 -0.282223
v 0.280600 -0.050000 -0.282897
v 0.282897 -0.050000 -0.280601
v 0.282224 -0.050000 -0.282225
v 0.280604 -0.002374 -0.280604
v 0.282897 -0.004797 -0.280601
v 0.280600 -0.004797 -0.282897
v 0.282225 -0.003136 -0.280602
v 0.281927 -0.003449 -0.281927
v 0.282224 -0.004797 -0.282224
v 0.280602 -0.003136 -0.282225
v -0.280600 -0.050000 0.282897
v -0.282897 -0.050000 0.280601
v -0.282224 -0.050000 0.282225
v -0.282897 -0.004796 0.280601
v -0.280600 -0.004796 0.282897
v -0.280604 -0.002374 0.280604
v -0.282223 -0.004823 0.282224
v -0.281927 -0.003444 0.281927
v -0.280602 -0.003109 0.282226
v -0.282226 -0.003109 0.280602
v 0.282897 -0.050000 0.280600
v 0.280601 -0.050000 0.282897
v 0.282224 -0.050000 0.282224
v 0.280601 -0.004796 0.282897
v 0.282897 -0.004796 0.280600
v 0.280604 -0.002377 0.280604
v 0.282224 -0.004822 0.282223
v 0.281927 -0.003445 0.281927
v 0.282226 -0.003111 0.280602
v 0.280602 -0.003111 0.282226
vt -0.500000 1.250000
vt -0.250000 1.250000
vt -0.250000 1.500000
vt -0.500000 1.500000
vt 0.000000 1.250000
vt 0.250000 1.250000
vt 0.250000 1.500000
vt 0.000000 1.500000
vt 0.500000 1.250000
vt 0.750000 1.250000
vt 0.750000 1.500000
vt 0.500000 1.500000
vt 1.000000 1.250000
vt 1.250000 1.250000
vt 1.250000 1.500000
vt 1.000000 1.500000
vt -0.500000 -0.250000
vt -0.250000 -0.250000
vt -0.250000 0.000000
vt -0.500000 0.000000
vt -0.500000 0.250000
vt -0.250000 0.250000
vt -0.250000 0.500000
vt -0.500000 0.500000
vt -0.500000 0.750000
vt -0.250000 0.750000
vt -0.250000 1.000000
vt -0.500000 1.000000
vt -0.250000 -0.500000
vt 0.000000 -0.500000
vt 0.000000 -0.250000
vt 0.000000 0.000000
vt 0.000000 0.250000
vt 0.000000 0.500000
vt 0.000000 0.750000
vt 0.000000 1.000000
vt 0.250000 -0.250000
vt 0.250000 0.000000
vt 0.250000 0.250000
vt 0.250000 0.500000
vt 0.250000 0.750000
vt 0.250000 1.000000
vt 0.250000 -0.500000
vt 0.500000 -0.500000
vt 0.500000 -0.250000
vt 0.500000 0.000000
vt 0.500000 0.250000
vt 0.500000 0.500000
vt 0.500000 0.750000
vt 0.500000 1.000000
vt 0.750000 -0.250000
vt 0.750000 0.000000
vt 0.750000 0.250000
vt 0.750000 0.500000
vt 0.750000 0.750000
vt 0.750000 1.000000
vt 0.750000 -0.500000
vt 1.000000 -0.500000
vt 1.000000 -0.250000
vt 1.000000 0.000000
vt 1.000000 0.250000
vt 1.000000 0.500000
vt 1.000000 0.750000
vt 1.000000 1.000000
vt 1.250000 -0.250000
vt 1.250000 0.000000
vt 1.250000 0.250000
vt 1.250000 0.500000
vt 1.250000 0.750000
vt 1.250000 1.000000
vt 1.250000 -0.500000
vt 1.500000 -0.500000
vt 1.500000 -0.250000
vt 1.500000 0.000000
vt 1.500000 0.250000
vt 1.500000 0.500000
vt 1.500000 0.750000
vt 1.500000 1.000000
vt 1.500000 1.250000
vt 0.004059 0.000000
vt 0.001189 0.001189
vt 0.000000 0.004059
vt 0.000000 0.995941
vt 0.001189 0.998811
vt 0.004059 1.000000
vt 0.995941 1.000000
vt 0.998811 0.998811
vt 1.000000 0.995941
vt 1.000000 0.004059
vt 0.998811 0.001189
vt 0.995941 0.000000
vt -0.186102 0.344506
vt 0.019689 0.349096
vt 0.230071 0.349096
vt 0.440453 0.349096
vt 0.650835 0.349096
vt 0.861217 0.349096
vt 1.071599 0.349096
vt 1.281980 0.349096
vt 1.492362 0.349096
vt 1.645092 0.501825
vt -0.343421 0.501825
vt -0.242188 -0.241561
vt -0.489583 -0.241561
vt -0.489583 -0.488957
vt -0.242188 -0.488957
vt 1.481550 0.401042
vt 1.481550 0.589390
vt -0.481550 0.589390
vt -0.481550 0.401042
vt -0.434375 1.076960
vt -0.223993 1.076960
vt -0.013611 1.076960
vt 0.196770 1.076960
vt 0.407152 1.076960
vt 0.617534 1.076960
vt 0.827916 1.076960
vt 1.038297 1.076960
vt 1.244088 1.072370
vt 1.401407 1.229689
vt -0.587104 1.229689
vt 1.488913 -0.035302
vt 1.278531 -0.035302
vt 1.068150 -0.035302
vt 0.857768 -0.035302
vt 0.647386 -0.035302
vt 0.437004 -0.035302
vt 0.226622 -0.035302
vt 0.016240 -0.035302
vt -0.194142 -0.035302
vt -0.346871 -0.188031
vt 1.641642 -0.188031
vt 1.481550 0.401042
vt 1.481550 0.589390
vt -0.481550 0.589390
vt -0.481550 0.401042
vt -0.481550 0.401042
vt -0.481550 0.589390
vt 1.481550 0.589390
vt 1.481550 0.401042
vt -0.593241 1.118541
vt -0.382254 1.118541
vt -0.171266 1.118541
vt 0.039721 1.118541
vt 0.250709 1.118541
vt 0.461697 1.118541
vt 0.672684 1.118541
vt 0.883672 1.118541
vt 1.094659 1.118541
vt 1.247828 1.271710
vt -0.746410 1.271710
vt 1.242188 -0.241561
vt 0.994792 -0.241561
vt 0.994792 -0.488957
vt 1.242188 -0.488957
vt 0.747396 -0.241561
vt 0.500000 -0.241561
vt 0.500000 -0.488957
vt 0.747396 -0.488957
vt 0.252604 -0.241561
vt 0.005208 -0.241561
vt 0.005208 -0.488957
vt 0.252604 -0.488957
vt 1.489583 1.490209
vt 1.242188 1.490209
vt 1.242188 1.242814
vt 1.489583 1.242814
vt 1.489583 0.995418
vt 1.242188 0.995418
vt 1.242188 0.748022
vt 1.489583 0.748022
vt 1.489583 0.500626
vt 1.242188 0.500626
vt 1.242188 0.253230
vt 1.489583 0.253230
vt 1.489583 0.005834
vt 1.242188 0.005834
vt 1.489583 -0.241561
vt 0.994792 1.242814
vt 0.994792 0.995418
vt 0.994792 0.748022
vt 0.994792 0.500626
vt 0.994792 0.253230
vt 0.994792 0.005834
vt 0.994792 1.490209
vt 0.747396 1.490210
vt 0.747396 1.242814
vt 0.747396 0.995418
vt 0.747396 0.748022
vt 0.747396 0.500626
vt 0.747396 0.253230
vt 0.747396 0.005834
vt 0.500000 1.242814
vt 0.500000 0.995418
vt 0.500000 0.748022
vt 0.500000 0.500626
vt 0.500000 0.253230
vt 0.500000 0.005834
vt 0.500000 1.490210
vt 0.252604 1.490209
vt 0.252604 1.242814
vt 0.252604 0.995418
vt 0.252604 0.748022
vt 0.252604 0.500626
vt 0.252604 0.253230
vt 0.252604 0.005834
vt 0.005208 1.242814
vt 0.005208 0.995418
vt 0.005208 0.748022
vt 0.005208 0.500626
vt 0.005208 0.253230
vt 0.005208 0.005834
vt 0.005208 1.490209
vt -0.242188 1.490209
vt -0.242188 1.242814
vt -0.242188 0.995418
vt -0.242188 0.748022
vt -0.242188 0.500626
vt -0.242188 0.253230
vt -0.242188 0.005834
vt -0.489583 1.242814
vt -0.489583 0.995418
vt -0.489583 0.748022
vt -0.489583 0.500626
vt -0.489583 0.253230
vt -0.489583 0.005834
vt -0.346859 -0.177533
vt -0.346865 -0.171556
vt -0.351559 -0.172741
vt -0.352610 -0.177626
vt -0.352619 -0.188025
vt -0.351559 -0.192719
vt -0.346865 -0.193779
vt -0.442920 1.499585
vt -0.477215 1.479892
vt -0.457486 1.459837
vt -0.432831 1.464683
vt 1.253590 1.271704
vt 1.252530 1.276412
vt 1.247822 1.277472
vt -0.587091 1.206664
vt -0.592845 1.206664
vt -0.591792 1.211437
vt -0.587098 1.212549
vt 1.247822 1.277472
vt 1.247768 1.283605
vt 1.252476 1.282491
vt 1.252530 1.276412
vt 1.641630 -0.177533
vt 1.647381 -0.177626
vt 1.646331 -0.172741
vt 1.641636 -0.171556
vt -0.343415 0.507573
vt -0.343465 0.513865
vt -0.348160 0.512680
vt -0.349210 0.507795
vt 1.650839 0.501819
vt 1.649780 0.506513
vt 1.645085 0.507573
vt 1.645085 0.507573
vt 1.649780 0.506513
vt 1.649730 0.512678
vt 1.645035 0.513859
vt 1.401395 1.206664
vt 1.401401 1.212635
vt 1.406096 1.211454
vt 1.407147 1.206574
vt 1.407155 1.229683
vt 1.406096 1.234377
vt 1.401401 1.235437
vt -0.489583 0.589281
vt -0.492263 0.104951
vt -0.481550 0.589390
vt -0.481550 0.401042
vt -0.746404 1.277474
vt -0.746459 1.283698
vt -0.746404 1.277474
vt 1.481550 0.401042
vt 1.481550 0.589390
vt 1.489583 0.589390
vt 1.489583 0.401042
vt -0.489583 0.401042
vt -0.489583 0.589390
vt 1.489583 0.589284
vt 1.492263 0.763105
vt -0.587098 1.235434
vt 1.641636 -0.193778
vt -0.343415 0.507573
vt -0.489583 0.589281
vt -0.489583 0.401042
vt 1.489583 0.401042
vt 1.489583 0.589281
vn 0.0000 0.9996 0.0274
vn 0.0000 1.0000 -0.0000
vn -0.0275 0.9996 -0.0000
vn -0.0206 0.9996 0.0206
vn 0.0274 0.9996 0.0000
vn 0.0206 0.9996 -0.0206
vn -0.0000 0.9996 -0.0275
vn 0.0000 -1.0000 0.0000
vn 0.0204 0.9996 0.0204
vn -0.2010 0.9588 0.2009
vn 0.2024 0.9585 0.2008
vn -0.0206 0.9996 -0.0206
vn -0.9808 0.0000 0.1952
vn -0.9681 0.1737 0.1808
vn -0.9681 0.1737 -0.1808
vn -0.9808 0.0000 -0.1952
vn 0.2027 0.9580 -0.2029
vn -0.2011 0.9584 -0.2027
vn 0.1952 0.0000 0.9808
vn 0.1808 0.1738 0.9681
vn -0.1808 0.1737 0.9681
vn -0.1952 0.0000 0.9808
vn 0.9808 -0.0000 -0.1951
vn 0.9680 0.1751 -0.1797
vn 0.9679 0.1745 0.1808
vn 0.9808 0.0000 0.1952
vn -0.7098 0.6809 -0.1806
vn -0.5882 0.5550 -0.5882
vn -0.6975 0.1643 -0.6975
vn -0.1804 0.6801 -0.7105
vn -0.1808 0.1744 -0.9679
vn 0.7108 0.6800 -0.1797
vn 0.5858 0.5601 -0.5858
vn 0.1797 0.6799 -0.7110
vn 0.6969 0.1692 -0.6969
vn 0.1797 0.1750 -0.9680
vn -0.6975 0.1643 0.6975
vn -0.5882 0.5550 0.5882
vn -0.7098 0.6809 0.1806
vn -0.1806 0.6810 0.7097
vn 0.6975 0.1645 0.6975
vn 0.5879 0.5557 0.5879
vn 0.1803 0.6812 0.7096
vn 0.7103 0.6805 0.1802
vn -0.7071 0.0000 -0.7071
vn -0.1952 0.0000 -0.9808
vn 0.1951 0.0000 -0.9808
vn 0.7071 0.0000 -0.7071
vn 0.7071 0.0000 0.7071
vn -0.7071 0.0000 0.7071
usemtl Wood
s 1
f 25/1/1 39/2/2 26/3/3 3/4/4
f 46/5/2 53/6/2 28/7/3 27/8/3
f 60/9/2 67/10/2 30/11/3 29/12/3
f 74/13/2 81/14/2 32/15/3 31/16/3
f 19/17/1 33/18/2 34/19/2 20/20/1
f 21/21/1 35/22/2 36/23/2 22/24/1
f 23/25/1 37/26/2 38/27/2 24/28/1
f 18/29/5 17/30/5 40/31/2 33/18/2
f 34/19/2 41/32/2 42/33/2 35/22/2
f 36/23/2 43/34/2 44/35/2 37/26/2
f 38/27/2 45/36/2 46/5/2 39/2/2
f 40/31/2 47/37/2 48/38/2 41/32/2
f 42/33/2 49/39/2 50/40/2 43/34/2
f 44/35/2 51/41/2 52/42/2 45/36/2
f 16/43/5 15/44/5 54/45/2 47/37/2
f 48/38/2 55/46/2 56/47/2 49/39/2
f 50/40/2 57/48/2 58/49/2 51/41/2
f 52/42/2 59/50/2 60/9/2 53/6/2
f 54/45/2 61/51/2 62/52/2 55/46/2
f 56/47/2 63/53/2 64/54/2 57/48/2
f 58/49/2 65/55/2 66/56/2 59/50/2
f 14/57/5 13/58/5 68/59/2 61/51/2
f 62/52/2 69/60/2 70/61/2 63/53/2
f 64/54/2 71/62/2 72/63/2 65/55/2
f 66/56/2 73/64/2 74/13/2 67/10/2
f 68/59/2 75/65/2 76/66/2 69/60/2
f 70/61/2 77/67/2 78/68/2 71/62/2
f 72/63/2 79/69/2 80/70/2 73/64/2
f 12/71/5 2/72/6 11/73/7 75/65/2
f 76/66/2 10/74/7 9/75/7 77/67/2
f 78/68/2 8/76/7 7/77/7 79/69/2
f 80/70/2 6/78/7 5/79/7 81/14/2
usemtl WoodDark
f 82/80/8 84/81/8 83/82/8 92/83/8 94/84/8 93/85/8 112/86/8 114/87/8 113/88/8 102/89/8 104/90/8 103/91/8
f 4/92/9 19/93/1 20/94/1 21/95/1 22/96/1 23/97/1 24/98/1 25/99/1 3/100/4 107/101/10 117/102/11
f 81/103/2 5/104/7 1/105/12 32/106/3
f 103/107/13 105/108/14 85/109/15 82/110/16
f 2/111/6 12/112/5 13/113/5 14/114/5 15/115/5 16/116/5 17/117/5 18/118/5 4/119/9 117/120/11 95/121/17
f 3/122/4 26/123/3 27/124/3 28/125/3 29/126/3 30/127/3 31/128/3 32/129/3 1/130/12 86/131/18 107/132/10
f 113/133/19 115/134/20 106/135/21 102/136/22
f 93/137/23 96/138/24 116/139/25 112/140/26
f 1/141/12 5/142/7 6/143/7 7/144/7 8/145/7 9/146/7 10/147/7 11/148/7 2/149/6 95/150/17 86/151/18
f 39/152/2 46/153/2 27/154/3 26/155/3
f 53/156/2 60/157/2 29/158/3 28/159/3
f 67/160/2 74/161/2 31/162/3 30/163/3
f 4/164/9 18/165/5 33/166/2 19/167/1
f 20/168/1 34/169/2 35/170/2 21/171/1
f 22/172/1 36/173/2 37/174/2 23/175/1
f 24/176/1 38/177/2 39/152/2 25/178/1
f 33/166/2 40/179/2 41/180/2 34/169/2
f 35/170/2 42/181/2 43/182/2 36/173/2
f 37/174/2 44/183/2 45/184/2 38/177/2
f 17/185/5 16/186/5 47/187/2 40/179/2
f 41/180/2 48/188/2 49/189/2 42/181/2
f 43/182/2 50/190/2 51/191/2 44/183/2
f 45/184/2 52/192/2 53/156/2 46/153/2
f 47/187/2 54/193/2 55/194/2 48/188/2
f 49/189/2 56/195/2 57/196/2 50/190/2
f 51/191/2 58/197/2 59/198/2 52/192/2
f 15/199/5 14/200/5 61/201/2 54/193/2
f 55/194/2 62/202/2 63/203/2 56/195/2
f 57/196/2 64/204/2 65/205/2 58/197/2
f 59/198/2 66/206/2 67/160/2 60/157/2
f 61/201/2 68/207/2 69/208/2 62/202/2
f 63/203/2 70/209/2 71/210/2 64/204/2
f 65/205/2 72/211/2 73/212/2 66/206/2
f 13/213/5 12/214/5 75/215/2 68/207/2
f 69/208/2 76/216/2 77/217/2 70/209/2
f 71/210/2 78/218/2 79/219/2 72/211/2
f 73/212/2 80/220/2 81/103/2 74/161/2
f 75/215/2 11/221/7 10/222/7 76/216/2
f 77/217/2 9/223/7 8/224/7 78/218/2
f 79/219/2 7/225/7 6/226/7 80/220/2
f 85/227/15 88/228/27 89/229/28 91/230/29
f 86/131/18 90/231/30 89/232/28 88/233/27
f 87/234/31 91/235/29 89/236/28 90/237/30
f 95/150/17 98/238/32 99/239/33 101/240/34
f 96/241/24 100/242/35 99/243/33 98/244/32
f 97/245/36 101/246/34 99/247/33 100/248/35
f 105/249/14 108/250/37 109/251/38 111/252/39
f 106/253/21 110/254/40 109/255/38 108/256/37
f 107/101/10 111/257/39 109/258/38 110/259/40
f 115/260/20 118/261/41 119/262/42 121/263/43
f 116/264/25 120/265/44 119/266/42 118/267/41
f 117/120/11 121/268/43 119/269/42 120/270/44
f 82/110/16 85/109/15 91/271/29 84/272/45
f 84/272/45 91/271/29 87/273/31 83/274/46
f 97/245/36 87/275/31 90/276/30 101/246/34
f 101/240/34 90/277/30 86/151/18 95/150/17
f 92/278/47 97/279/36 100/280/35 94/281/48
f 94/282/48 100/283/35 96/138/24 93/137/23
f 112/140/26 116/139/25 118/284/41 114/285/49
f 114/285/49 118/284/41 115/134/20 113/133/19
f 116/264/25 96/241/24 98/244/32 120/265/44
f 120/270/44 98/286/32 95/121/17 117/120/11
f 85/227/15 105/249/14 111/252/39 88/228/27
f 88/233/27 111/287/39 107/132/10 86/131/18
f 106/253/21 115/260/20 121/263/43 110/254/40
f 110/259/40 121/288/43 117/102/11 107/101/10
f 102/136/22 106/135/21 108/289/37 104/290/50
f 104/291/50 108/292/37 105/108/14 103/107/13
f 83/274/46 87/273/31 97/279/36 92/278/47
